<svg width="180" height="180" viewBox="0 0 180 180" fill="none" xmlns="http://www.w3.org/2000/svg">
<rect width="180" height="180" rx="90" fill="#287244"/>
<path d="M57.8996 46.0547L58.4937 49.3424C58.4937 49.3424 58.9818 52.0376 60.4142 54.974C61.8467 57.9103 64.3439 61.3937 68.6743 62.4528C72.2768 63.3338 75.173 63.0747 77.8296 62.6807C79.4293 62.4434 81.2533 62.381 82.9566 62.2331V62.3877V64.4792V72.4544V73.1868C77.2505 73.6915 71.6885 76.0746 67.3316 80.3402C57.4484 90.0159 57.4484 105.764 67.3316 115.439C75.6447 123.578 88.3361 124.842 98.0445 119.289L110.496 133.945L122.1 122.593L107.118 110.402C112.79 100.899 111.501 88.4786 103.188 80.3402C98.7398 75.9857 93.0353 73.6056 87.2046 73.1706V72.4544V64.3083C89.7762 64.3345 91.8453 64.7038 94.0161 65.0326C96.723 65.4426 99.6651 65.7385 103.35 64.8373C107.681 63.7782 110.178 60.2948 111.611 57.3584C113.043 54.4221 113.523 51.7269 113.523 51.7269L114.117 48.4392L110.821 49.4076C110.821 49.4076 109.296 49.8607 107.232 50.2132C105.169 50.5657 102.584 50.7611 100.893 50.4248C97.5079 49.7517 94.7945 50.2086 92.8198 51.0922C90.8452 51.9757 89.5877 53.2645 89.0031 53.8103C88.2964 54.4701 87.6628 55.292 86.9849 56.0726C85.8159 54.5681 84.6079 52.9062 83.0135 51.4177C82.4289 50.8718 81.1715 49.5913 79.1968 48.7077C77.2221 47.8242 74.5087 47.3591 71.1239 48.0323C69.4328 48.3685 66.8481 48.1813 64.7844 47.8288C62.7206 47.4763 61.1955 47.0231 61.1955 47.0231L57.8996 46.0547ZM63.7508 51.792C63.9155 51.8224 63.8806 51.836 64.052 51.8652C66.3734 52.2618 69.2683 52.5978 71.9703 52.0605C74.5862 51.5403 76.2225 51.8978 77.4227 52.4349C78.623 52.9719 79.3693 53.7126 80.0839 54.3799C81.1342 55.3604 82.139 56.7251 83.2577 58.1233C81.1221 58.2788 78.8163 58.3874 77.1949 58.6279C74.6955 58.9986 72.636 59.1812 69.7079 58.4651C67.196 57.8508 65.4012 55.5982 64.2391 53.2161C63.8787 52.4773 63.9762 52.4362 63.7508 51.792ZM108.274 54.1846C108.049 54.8287 108.146 54.8617 107.786 55.6006C106.624 57.9827 104.829 60.2434 102.317 60.8577C99.3224 61.59 97.2397 61.3694 94.6672 60.9798C93.0614 60.7366 90.7113 60.6709 88.5962 60.5241L88.6776 60.4264C89.7421 59.1041 90.9579 57.6821 91.9409 56.7643C92.6556 56.0971 93.4018 55.3564 94.6021 54.8193C95.8024 54.2823 97.4387 53.9248 100.055 54.445C102.757 54.9824 105.651 54.6462 107.973 54.2497C108.144 54.2205 108.109 54.2151 108.274 54.1846ZM85.2596 77.1826C90.6651 77.1826 96.0641 79.2035 100.201 83.2536C108.475 91.3538 108.475 104.426 100.201 112.526C91.9272 120.626 78.584 120.626 70.3101 112.526C62.0362 104.426 62.0362 91.3538 70.3101 83.2536C74.447 79.2035 79.8542 77.1826 85.2596 77.1826ZM104.701 113.796L115.85 122.869L110.78 127.866L101.503 116.929C102.08 116.457 102.646 115.969 103.188 115.439C103.727 114.911 104.221 114.358 104.701 113.796Z" fill="white"/>
<path d="M83.1031 83.5704V85.5724V87.2898H76.7554V99.8631H89.4507V104.453H78.912H76.7554V108.465H78.912H83.1031V110.174V112.176H87.4081V110.174V108.465H93.7558V95.851H81.0686V91.2937H91.5992H93.7558V87.2898H91.5992H87.4081V85.5724V83.5704H83.1031Z" fill="white"/>
</svg>
