<svg width="180" height="180" viewBox="0 0 180 180" fill="none" xmlns="http://www.w3.org/2000/svg">
<rect width="180" height="180" rx="90" fill="#287244"/>
<path d="M136.563 82.9687L132.031 64.8437C131.25 61.4062 127.969 59.375 124.688 60C122.969 60.3125 121.563 61.25 120.625 62.8125C119.688 64.2187 119.375 66.0937 119.844 67.6562L122.969 79.8437C123.125 80.3125 122.969 80.7812 122.813 81.0937L120.938 83.75C119.844 83.2812 118.75 82.9687 117.5 83.125C115.781 83.2812 114.219 84.0625 113.125 85.4687L105 95.625C103.906 97.0312 102.813 98.5937 101.875 100.312C98.5938 106.406 97.3438 113.594 98.4375 120.469L100.938 135.625C101.094 136.406 101.719 136.875 102.5 136.875C102.656 136.875 102.656 136.875 102.813 136.875C103.594 136.719 104.219 135.938 104.063 135.156L101.563 120C100.625 113.75 101.719 107.344 104.688 101.719C105.469 100.312 106.406 98.9062 107.5 97.5L115.625 87.3437C116.094 86.7187 116.875 86.25 117.813 86.0937C118.75 85.9375 119.531 86.25 120.156 86.875C121.406 87.9687 121.406 90 120.313 91.4062L113.75 99.6875C113.281 100.312 113.281 101.406 114.063 101.875C114.688 102.344 115.781 102.344 116.25 101.562L122.813 93.2812C124.531 90.9375 124.688 87.9687 123.281 85.7812L125.313 82.6562C126.094 81.5625 126.25 80.1562 125.938 78.9062L122.813 66.7187C122.656 65.9375 122.813 65 123.125 64.2187C123.594 63.4375 124.375 62.9687 125.156 62.8125C126.719 62.5 128.438 63.5937 128.906 65.3125L133.438 83.4375C133.906 85.3125 133.594 87.3437 132.813 89.0625L122.5 108.125C120 112.812 118.906 118.125 119.531 123.437L120.781 135.156C120.938 135.938 121.563 136.562 122.344 136.562H122.5C123.281 136.406 123.906 135.781 123.906 134.844L122.656 123.125C122.188 118.437 123.125 113.75 125.313 109.531L135.625 90.4687C136.875 88.4375 137.188 85.625 136.563 82.9687Z" fill="white"/>
<path d="M74.8437 95.625L66.7188 85.4688C65.625 84.0625 64.0625 83.2813 62.3438 83.125C61.0938 82.9688 60 83.2813 58.9063 83.75L57.1875 81.0938C56.875 80.7813 56.875 80.3125 57.0312 79.8438L60.1562 67.6563C60.625 65.9375 60.3125 64.2188 59.375 62.8125C58.4375 61.4063 57.0312 60.3125 55.3125 60C52.0312 59.375 48.9062 61.5625 47.9688 64.8438L43.4375 82.9688C42.8125 85.625 43.125 88.4375 44.375 90.7813L54.6875 109.844C56.875 114.063 57.8125 118.75 57.3438 123.438L56.0938 135.156C55.9375 135.938 56.5625 136.719 57.5 136.875H57.6562C58.4375 136.875 59.0625 136.25 59.2188 135.469L60.4688 123.75C61.0938 118.438 60 113.125 57.5 108.438L47.1875 89.2188C46.25 87.5 45.9375 85.4688 46.5625 83.5938L51.0938 65.4688C51.5625 63.75 53.125 62.6563 54.8438 62.9688C55.625 63.125 56.4062 63.5938 56.875 64.375C57.3438 65.1563 57.5 65.9375 57.1875 66.875L54.0625 79.0625C53.75 80.3125 53.9062 81.7188 54.6875 82.8125L56.7188 85.9375C55.3125 88.125 55.3125 91.25 57.1875 93.4375L63.75 101.719C64.2188 102.344 65.3125 102.5 65.9375 102.031C66.5625 101.563 66.7187 100.469 66.25 99.8438L59.6875 91.5625C58.5938 90.1563 58.75 88.125 59.8438 87.0313C60.4688 86.4063 61.25 86.25 62.1875 86.25C63.125 86.25 63.75 86.7188 64.375 87.5L72.5 97.6563C73.5937 98.9063 74.5312 100.313 75.3125 101.875C78.2812 107.344 79.375 113.906 78.4375 120.156L75.9375 135.313C75.7812 136.094 76.4062 137.031 77.1875 137.031C77.3438 137.031 77.3438 137.031 77.5 137.031C78.2812 137.031 78.9062 136.563 79.0625 135.781L81.5625 120.625C82.6562 113.75 81.4062 106.563 78.125 100.469C77.0312 98.5938 76.0938 97.0313 74.8437 95.625Z" fill="white"/>
<path d="M101.406 77.0312C103.125 78.125 105.312 77.9687 106.875 76.5625C108.594 74.8437 108.594 72.1875 106.875 70.4687L105.469 69.0625L106.875 67.6562C108.594 65.9375 108.594 63.2812 106.875 61.5625C105.469 60.1562 103.125 59.8437 101.406 61.0937L91.4062 68.125L97.9687 58.5937C99.0625 56.875 98.9062 54.6875 97.5 53.125C95.7812 51.4063 93.125 51.4063 91.4062 53.125L90 54.5312L88.5937 53.125C86.875 51.4063 84.2187 51.4063 82.5 53.125C81.0938 54.5312 80.7812 56.875 82.0312 58.5937L88.5937 68.125L78.4375 61.0937C76.7187 60 74.5312 60.1562 72.9688 61.5625C71.25 63.2812 71.25 65.9375 72.9688 67.6562L74.375 69.0625L72.9688 70.4687C71.25 72.1875 71.25 74.8437 72.9688 76.5625C74.375 77.9687 76.7187 78.2812 78.4375 77.0312L87.9688 70.4687C87.0312 76.25 84.2187 81.5625 80.1562 85.7812L79.6875 86.25C78.4375 87.5 78.4375 89.5312 79.6875 90.7812C80.9375 92.0312 83.125 92.0312 84.375 90.625L84.6875 90.1562C89.5312 84.6875 91.875 77.5 91.5625 70.3125L101.406 77.0312Z" fill="white"/>
</svg>
