<svg width="180" height="180" viewBox="0 0 180 180" fill="none" xmlns="http://www.w3.org/2000/svg">
<rect width="180" height="180" rx="90" fill="#287244"/>
<g clip-path="url(#clip0_12_48)">
<path d="M81.5708 80.6276C80.1664 77.247 76.827 74.5932 71.6527 72.7439C69.1145 71.828 66.4373 71.3566 63.7388 71.3506C58.9781 71.3473 54.3261 72.7731 50.3851 75.4433C50.2541 75.5407 50.1498 75.6693 50.0816 75.8175C50.0133 75.9657 49.9835 76.1287 49.9947 76.2915C50.006 76.4543 50.0579 76.6116 50.1458 76.7491C50.2337 76.8865 50.3547 76.9997 50.4977 77.0781C54.0985 79.1145 57.4709 81.5303 60.5574 84.2843C60.8372 84.5495 67.5559 90.7984 74.4707 90.7984C77.0287 90.8268 79.4983 89.8641 81.3618 88.1118C81.4547 88.0256 81.5306 87.9226 81.5854 87.8084C82.0548 86.6692 82.2951 85.4486 82.2926 84.2165C82.2901 82.9844 82.0449 81.7649 81.5708 80.6276Z" fill="white"/>
<path d="M87.203 94.5314C87.0363 94.5305 86.8726 94.4874 86.727 94.406C86.5815 94.3247 86.459 94.2078 86.3709 94.0663C81.916 86.7748 64.5436 79.5741 64.3692 79.505C64.2511 79.4566 64.1436 79.3854 64.0531 79.2955C63.9625 79.2056 63.8905 79.0987 63.8413 78.9809C63.7418 78.7432 63.7409 78.4756 63.8387 78.2371C63.9365 77.9986 64.1251 77.8088 64.3629 77.7093C64.6007 77.6099 64.8683 77.6089 65.1068 77.7067C65.8445 78.0119 83.2459 85.2216 88.0314 93.0491C88.1651 93.2694 88.2061 93.5338 88.1455 93.7843C88.0849 94.0348 87.9277 94.2511 87.7081 94.3861C87.5565 94.4806 87.3816 94.531 87.203 94.5314Z" fill="white"/>
<path d="M129.535 58.7185C125.027 56.2551 119.968 54.9757 114.831 55C110.417 55.0017 106.058 55.9825 102.068 57.872C95.6984 60.8602 91.7776 64.6331 90.4078 69.0855C89.4834 72.0839 89.7833 75.3262 91.2418 78.1045C91.3062 78.2117 91.3906 78.3054 91.4906 78.3805C93.6887 80.0859 96.3936 81.0086 99.1758 81.0019C108.496 81.0019 117.084 71.3343 117.447 70.9237C121.1 66.9747 125.166 63.4297 129.577 60.3497C129.712 60.2586 129.822 60.1348 129.896 59.99C129.971 59.8451 130.008 59.6838 130.004 59.5209C130 59.3579 129.955 59.1986 129.873 59.0577C129.791 58.9169 129.674 58.7989 129.535 58.7148V58.7185Z" fill="white"/>
<path d="M87.203 114.631C86.9458 114.631 86.6993 114.528 86.5174 114.347C86.3356 114.165 86.2333 113.918 86.2328 113.661V89.95C86.2328 71.8156 110.011 64.4333 111.023 64.1244C111.146 64.0875 111.274 64.0749 111.401 64.0875C111.528 64.1001 111.652 64.1376 111.764 64.1979C111.877 64.2583 111.976 64.3402 112.057 64.439C112.138 64.5378 112.199 64.6516 112.236 64.7738C112.273 64.8961 112.286 65.0245 112.273 65.1516C112.26 65.2787 112.223 65.402 112.162 65.5146C112.102 65.6272 112.02 65.7268 111.921 65.8077C111.823 65.8886 111.709 65.9493 111.587 65.9863C111.352 66.0553 88.1768 73.2616 88.1768 89.9482V113.659C88.1758 113.917 88.0728 114.164 87.8904 114.346C87.7079 114.528 87.4608 114.631 87.203 114.631Z" fill="white"/>
<path d="M125.803 125C123.31 121.294 117.68 116.462 105.578 118.335C105.578 118.335 100.593 103.943 83.5384 106.58C80.2791 106.929 77.2437 108.404 74.9553 110.75C72.6668 113.096 71.2689 116.168 71.0024 119.434C71.0024 119.434 61.6312 120.121 58.1029 125H125.803Z" fill="white"/>
</g>
<defs>
<clipPath id="clip0_12_48">
<rect width="80" height="70" fill="white" transform="translate(50 55)"/>
</clipPath>
</defs>
</svg>
