<svg width="180" height="180" viewBox="0 0 180 180" fill="none" xmlns="http://www.w3.org/2000/svg">
<rect width="180" height="180" rx="90" fill="#287244"/>
<path d="M94.3125 79.5125C94.1676 79.5124 94.0237 79.487 93.8875 79.4375C93.2503 79.2072 92.5934 79.0357 91.925 78.925C90.6599 78.7001 89.3651 78.7001 88.1 78.925C87.4237 79.0428 86.7587 79.2184 86.1125 79.45C85.9319 79.5151 85.7387 79.5376 85.5479 79.5159C85.3571 79.4943 85.1739 79.4289 85.0125 79.325C84.8499 79.2217 84.7135 79.0822 84.6137 78.9174C84.514 78.7526 84.4537 78.567 84.4375 78.375L83.025 61.325C82.9432 60.3594 83.0627 59.3873 83.3761 58.4703C83.6895 57.5533 84.1898 56.7114 84.8455 55.9978C85.5012 55.2842 86.2979 54.7145 87.1851 54.3248C88.0724 53.9352 89.0309 53.7339 90 53.7339C90.9691 53.7339 91.9276 53.9352 92.8149 54.3248C93.7021 54.7145 94.4988 55.2842 95.1545 55.9978C95.8102 56.7114 96.3105 57.5533 96.6239 58.4703C96.9373 59.3873 97.0568 60.3594 96.975 61.325L95.5625 78.3625C95.5463 78.5545 95.486 78.7401 95.3863 78.9049C95.2865 79.0697 95.1501 79.2092 94.9875 79.3125C94.7863 79.4425 94.552 79.5119 94.3125 79.5125ZM90 56.25C89.3758 56.2456 88.7578 56.3737 88.1868 56.6258C87.6158 56.8779 87.1048 57.2483 86.6875 57.7125C86.2634 58.1642 85.9404 58.701 85.7399 59.2873C85.5395 59.8735 85.4662 60.4958 85.525 61.1125L86.775 76.625L87.65 76.45C89.1962 76.175 90.7788 76.175 92.325 76.45C92.6 76.45 92.8875 76.55 93.175 76.6125L94.425 61.1125C94.4838 60.4958 94.4105 59.8735 94.2101 59.2873C94.0096 58.701 93.6866 58.1642 93.2625 57.7125C92.8508 57.2546 92.3479 56.8879 91.786 56.636C91.2241 56.3842 90.6158 56.2527 90 56.25Z" fill="white"/>
<path d="M80.4 83.25C80.207 83.2418 80.0185 83.1891 79.8493 83.0958C79.6802 83.0025 79.5349 82.8714 79.425 82.7125L69.625 68.6625C69.0855 67.8677 68.7147 66.9706 68.5356 66.0267C68.3565 65.0829 68.3729 64.1124 68.5838 63.1751C68.7947 62.2379 69.1956 61.3539 69.7617 60.5777C70.3277 59.8015 71.047 59.1497 71.875 58.6625C72.716 58.1699 73.6495 57.8558 74.6172 57.7397C75.585 57.6235 76.5663 57.7079 77.5 57.9875C78.4284 58.2832 79.2849 58.7695 80.0145 59.4153C80.7442 60.061 81.331 60.852 81.7375 61.7375L89 77.15C89.0879 77.3245 89.1337 77.5171 89.1337 77.7125C89.1337 77.9079 89.0879 78.1005 89 78.275C88.9089 78.4469 88.779 78.5951 88.6206 78.708C88.4622 78.8208 88.2797 78.8951 88.0875 78.925C87.4191 79.0357 86.7622 79.2072 86.125 79.4375C84.9189 79.8851 83.7985 80.5362 82.8125 81.3625C82.2905 81.7969 81.8094 82.2781 81.375 82.8C81.2561 82.9428 81.1069 83.0572 80.9383 83.135C80.7696 83.2129 80.5857 83.2522 80.4 83.25ZM75.4 60.1625C74.5794 60.1674 73.7757 60.3959 73.0753 60.8235C72.3749 61.2511 71.8044 61.8616 71.4252 62.5893C71.0459 63.317 70.8722 64.1343 70.9228 64.9533C70.9735 65.7724 71.2465 66.5621 71.7125 67.2375L80.55 80L81.2 79.425C82.4057 78.4159 83.7755 77.621 85.25 77.075L86.0875 76.8125L79.45 62.75C79.1846 62.1873 78.8055 61.6857 78.3364 61.2769C77.8674 60.8681 77.3187 60.561 76.725 60.375C76.2838 60.2374 75.8246 60.1658 75.3625 60.1625H75.4Z" fill="white"/>
<path d="M77.6875 89.125C77.5009 89.1266 77.3167 89.0837 77.15 89L61.675 81.7C60.7991 81.2866 60.0184 80.696 59.3825 79.9654C58.7466 79.2349 58.2692 78.3803 57.9805 77.4558C57.6918 76.5312 57.5981 75.5568 57.7054 74.5942C57.8127 73.6316 58.1185 72.7018 58.6037 71.8634C59.0888 71.0251 59.7426 70.2966 60.5237 69.7239C61.3049 69.1513 62.1964 68.747 63.1418 68.5366C64.0872 68.3262 65.0661 68.3143 66.0163 68.5016C66.9666 68.689 67.8677 69.0715 68.6625 69.625L82.7125 79.375C82.8713 79.4849 83.0025 79.6302 83.0958 79.7993C83.1891 79.9685 83.2418 80.157 83.25 80.35C83.2579 80.542 83.2214 80.7332 83.1433 80.9088C83.0653 81.0844 82.9478 81.2397 82.8 81.3625C81.2823 82.6289 80.123 84.271 79.4375 86.125C79.2058 86.7574 79.0342 87.4103 78.925 88.075C78.8938 88.2684 78.8176 88.4517 78.7025 88.6102C78.5874 88.7687 78.4367 88.8979 78.2625 88.9875C78.0846 89.0786 77.8874 89.1258 77.6875 89.125ZM64.6875 70.875C64.3511 70.876 64.0157 70.9137 63.6875 70.9875C63.0798 71.1233 62.5069 71.3838 62.005 71.7524C61.5031 72.1211 61.0833 72.5899 60.7719 73.1292C60.4605 73.6684 60.2645 74.2665 60.1962 74.8854C60.1279 75.5044 60.1888 76.1308 60.375 76.725C60.561 77.3187 60.8681 77.8674 61.2769 78.3364C61.6856 78.8055 62.1873 79.1846 62.75 79.45L76.825 86.0875C76.9 85.8125 76.9875 85.5375 77.0875 85.2625C77.6374 83.8013 78.432 82.4444 79.4375 81.25C79.625 81.025 79.825 80.8 80.0125 80.6L67.2375 71.725C66.4943 71.1878 65.6044 70.8911 64.6875 70.875Z" fill="white"/>
<path d="M60.7375 97C59.7937 96.9988 58.8599 96.8067 57.9923 96.4354C57.1246 96.0641 56.341 95.5211 55.6886 94.8392C55.0361 94.1572 54.5283 93.3504 54.1957 92.4672C53.863 91.584 53.7124 90.6426 53.7529 89.6997C53.7934 88.7568 54.0241 87.8318 54.4312 86.9804C54.8384 86.1289 55.4134 85.3686 56.1219 84.7451C56.8304 84.1216 57.6577 83.6478 58.554 83.3522C59.4503 83.0566 60.3971 82.9453 61.3375 83.025L78.3625 84.4375C78.5544 84.4537 78.74 84.514 78.9048 84.6137C79.0696 84.7135 79.2091 84.8499 79.3125 85.0125C79.4164 85.1739 79.4817 85.3571 79.5034 85.5479C79.5251 85.7387 79.5025 85.9319 79.4375 86.1125C79.2072 86.7497 79.0356 87.4066 78.925 88.075C78.8046 88.7095 78.746 89.3542 78.75 90C78.7466 90.6369 78.801 91.2729 78.9125 91.9C79.0231 92.5684 79.1947 93.2253 79.425 93.8625C79.49 94.0431 79.5126 94.2363 79.4909 94.4271C79.4692 94.6179 79.4039 94.8011 79.3 94.9625C79.1966 95.1251 79.0571 95.2615 78.8923 95.3613C78.7275 95.461 78.5419 95.5213 78.35 95.5375L61.325 96.975L60.7375 97ZM60.7375 85.5C60.1236 85.4891 59.514 85.604 58.9461 85.8376C58.3783 86.0712 57.8643 86.4185 57.4357 86.8581C57.0071 87.2978 56.673 87.8205 56.454 88.3941C56.235 88.9676 56.1357 89.58 56.1622 90.1934C56.1886 90.8068 56.3404 91.4083 56.608 91.9609C56.8757 92.5135 57.2536 93.0054 57.7184 93.4065C58.1833 93.8076 58.7254 94.1093 59.3112 94.293C59.8971 94.4768 60.5143 94.5387 61.125 94.475L76.6375 93.225C76.575 92.9375 76.5125 92.65 76.4625 92.3625C76.3262 91.5823 76.2551 90.792 76.25 90C76.2508 89.2119 76.3219 88.4255 76.4625 87.65C76.4625 87.375 76.5625 87.0875 76.625 86.8L61.125 85.55L60.7375 85.5Z" fill="white"/>
<path d="M64.6625 111.625C64.1494 111.622 63.6381 111.563 63.1375 111.45C61.7175 111.129 60.4329 110.374 59.4625 109.288C58.492 108.203 57.884 106.843 57.7231 105.396C57.5622 103.949 57.8563 102.488 58.5647 101.216C59.273 99.9443 60.3602 98.9249 61.675 98.3L77.15 91C77.3229 90.9141 77.5133 90.8694 77.7063 90.8694C77.8993 90.8694 78.0897 90.9141 78.2625 91C78.4367 91.0895 78.5874 91.2188 78.7025 91.3773C78.8176 91.5358 78.8938 91.7191 78.925 91.9125C79.0357 92.5809 79.2072 93.2378 79.4375 93.875C79.8851 95.0811 80.5362 96.2015 81.3625 97.1875C81.7969 97.7094 82.2781 98.1906 82.8 98.625C82.9478 98.7478 83.0653 98.903 83.1433 99.0786C83.2214 99.2542 83.2579 99.4455 83.25 99.6375C83.2419 99.8305 83.1891 100.019 83.0958 100.188C83.0026 100.357 82.8714 100.503 82.7125 100.612L68.6625 110.375C67.4896 111.193 66.0927 111.63 64.6625 111.625ZM76.825 93.9125L62.75 100.55C62.1867 100.816 61.6846 101.195 61.2756 101.665C60.8666 102.135 60.5595 102.684 60.3739 103.279C60.1882 103.873 60.128 104.5 60.1971 105.119C60.2661 105.738 60.4629 106.336 60.775 106.875C61.0873 107.413 61.5074 107.88 62.0089 108.248C62.5105 108.616 63.0826 108.876 63.6894 109.012C64.2963 109.148 64.9247 109.157 65.5353 109.039C66.1458 108.921 66.7254 108.678 67.2375 108.325L80 99.45C79.8125 99.2375 79.6125 99.025 79.425 98.8C78.4159 97.5943 77.621 96.2244 77.075 94.75C76.9875 94.4625 76.9 94.1875 76.825 93.9125Z" fill="white"/>
<path d="M75.375 122.325C74.0975 122.324 72.8446 121.974 71.7519 121.312C70.6592 120.651 69.7685 119.703 69.1762 118.571C68.5839 117.439 68.3126 116.167 68.3917 114.891C68.4708 113.616 68.8973 112.387 69.625 111.338L79.375 97.2875C79.4849 97.1287 79.6302 96.9975 79.7993 96.9042C79.9685 96.811 80.157 96.7582 80.35 96.75C80.542 96.7421 80.7332 96.7787 80.9088 96.8567C81.0844 96.9347 81.2397 97.0522 81.3625 97.2C82.629 98.7177 84.271 99.877 86.125 100.563C86.7575 100.794 87.4103 100.966 88.075 101.075C88.2672 101.105 88.4497 101.179 88.6081 101.292C88.7666 101.405 88.8964 101.553 88.9875 101.725C89.0754 101.899 89.1212 102.092 89.1212 102.288C89.1212 102.483 89.0754 102.676 88.9875 102.85L81.7 118.325C81.1359 119.525 80.2411 120.538 79.1206 121.247C78.0002 121.956 76.7007 122.33 75.375 122.325ZM80.55 100L71.675 112.775C71.3287 113.287 71.0915 113.865 70.9783 114.472C70.8651 115.08 70.8782 115.704 71.0168 116.306C71.1554 116.908 71.4166 117.476 71.7841 117.972C72.1516 118.469 72.6174 118.885 73.1526 119.194C73.6879 119.503 74.281 119.698 74.895 119.768C75.5091 119.838 76.1309 119.78 76.7217 119.599C77.3125 119.418 77.8597 119.117 78.329 118.715C78.7984 118.313 79.18 117.818 79.45 117.263L86.0875 103.188L85.2625 102.925C83.8004 102.371 82.4435 101.572 81.25 100.563L80.55 100Z" fill="white"/>
<path d="M90 126.25C89.0307 126.252 88.0716 126.052 87.1837 125.663C86.2958 125.274 85.4985 124.705 84.8425 123.991C84.1865 123.278 83.6862 122.436 83.3733 121.518C83.0604 120.601 82.9418 119.628 83.025 118.662L84.4375 101.637C84.4537 101.446 84.514 101.26 84.6137 101.095C84.7135 100.93 84.85 100.791 85.0125 100.687C85.174 100.584 85.3572 100.518 85.5479 100.497C85.7387 100.475 85.9319 100.497 86.1125 100.562C86.7497 100.793 87.4066 100.964 88.075 101.075C89.3401 101.3 90.6349 101.3 91.9 101.075C92.5763 100.957 93.2413 100.782 93.8875 100.55C94.0682 100.485 94.2613 100.462 94.4521 100.484C94.6429 100.506 94.8261 100.571 94.9875 100.675C95.1501 100.778 95.2866 100.918 95.3863 101.083C95.486 101.247 95.5464 101.433 95.5625 101.625L96.975 118.65C97.0601 119.617 96.9428 120.591 96.6308 121.509C96.3187 122.428 95.8187 123.272 95.1625 123.987C94.5063 124.702 93.7084 125.273 92.8195 125.662C91.9307 126.052 90.9705 126.252 90 126.25ZM86.8 103.375L85.55 118.875C85.504 119.491 85.5855 120.109 85.7895 120.692C85.9935 121.275 86.3156 121.81 86.7357 122.262C87.1557 122.715 87.6647 123.076 88.2306 123.323C88.7966 123.57 89.4075 123.697 90.025 123.697C90.6425 123.697 91.2534 123.57 91.8194 123.323C92.3854 123.076 92.8943 122.715 93.3144 122.262C93.7344 121.81 94.0565 121.275 94.2605 120.692C94.4645 120.109 94.5461 119.491 94.5 118.875L93.25 103.375L92.375 103.55C90.8288 103.825 89.2462 103.825 87.7 103.55C87.375 103.5 87.0875 103.437 86.8 103.375Z" fill="white"/>
<path d="M104.625 122.325C103.299 122.33 102 121.956 100.879 121.247C99.7589 120.538 98.8641 119.525 98.3 118.325L91 102.85C90.9121 102.676 90.8663 102.483 90.8663 102.288C90.8663 102.092 90.9121 101.899 91 101.725C91.091 101.553 91.2209 101.405 91.3793 101.292C91.5378 101.179 91.7203 101.105 91.9125 101.075C92.5809 100.964 93.2378 100.793 93.875 100.563C95.0811 100.115 96.2015 99.4639 97.1875 98.6375C97.7094 98.2031 98.1906 97.7219 98.625 97.2C98.7478 97.0522 98.9031 96.9347 99.0787 96.8567C99.2543 96.7787 99.4455 96.7421 99.6375 96.75C99.8305 96.7582 100.019 96.811 100.188 96.9042C100.357 96.9975 100.503 97.1287 100.612 97.2875L110.362 111.338C110.902 112.132 111.273 113.029 111.452 113.973C111.631 114.917 111.615 115.888 111.404 116.825C111.193 117.762 110.792 118.646 110.226 119.422C109.66 120.199 108.94 120.85 108.112 121.338C107.055 121.963 105.853 122.304 104.625 122.325ZM93.9125 103.175L100.55 117.25C100.816 117.813 101.195 118.315 101.665 118.724C102.135 119.133 102.684 119.441 103.279 119.626C103.873 119.812 104.5 119.872 105.119 119.803C105.738 119.734 106.336 119.537 106.875 119.225C107.413 118.913 107.88 118.493 108.248 117.991C108.616 117.49 108.876 116.917 109.012 116.311C109.148 115.704 109.157 115.075 109.039 114.465C108.921 113.854 108.678 113.275 108.325 112.763L99.45 100L98.8 100.575C97.5943 101.584 96.2244 102.379 94.75 102.925L93.9125 103.175Z" fill="white"/>
<path d="M115.337 111.625C113.907 111.63 112.51 111.193 111.337 110.375L97.2874 100.625C97.1286 100.515 96.9974 100.37 96.9042 100.201C96.8109 100.031 96.7581 99.843 96.7499 99.65C96.7421 99.458 96.7786 99.2668 96.8566 99.0911C96.9347 98.9155 97.0522 98.7603 97.1999 98.6375C98.7176 97.371 99.8769 95.729 100.562 93.875C100.794 93.2425 100.966 92.5896 101.075 91.925C101.106 91.7316 101.182 91.5483 101.297 91.3898C101.413 91.2313 101.563 91.102 101.737 91.0125C101.91 90.9266 102.101 90.8819 102.294 90.8819C102.487 90.8819 102.677 90.9266 102.85 91.0125L118.325 98.3125C119.2 98.7256 119.979 99.3156 120.614 100.045C121.25 100.775 121.727 101.628 122.016 102.551C122.305 103.474 122.399 104.447 122.293 105.409C122.187 106.37 121.883 107.299 121.4 108.137C120.912 108.973 120.257 109.699 119.477 110.271C118.696 110.843 117.806 111.249 116.862 111.462C116.361 111.571 115.85 111.626 115.337 111.625ZM99.9999 99.45L112.775 108.325C113.287 108.671 113.864 108.908 114.472 109.022C115.079 109.135 115.704 109.122 116.306 108.983C116.908 108.845 117.476 108.583 117.972 108.216C118.469 107.848 118.885 107.383 119.194 106.847C119.503 106.312 119.698 105.719 119.768 105.105C119.838 104.491 119.78 103.869 119.599 103.278C119.418 102.687 119.117 102.14 118.715 101.671C118.313 101.202 117.818 100.82 117.262 100.55L103.175 93.9125C103.1 94.1875 103.012 94.4625 102.912 94.7375C102.363 96.1987 101.568 97.5556 100.562 98.75C100.375 99.025 100.175 99.25 99.9999 99.45Z" fill="white"/>
<path d="M119.263 97H118.663L101.638 95.5625C101.446 95.5463 101.26 95.486 101.095 95.3863C100.93 95.2865 100.791 95.1501 100.688 94.9875C100.584 94.8261 100.518 94.6429 100.497 94.4521C100.475 94.2613 100.498 94.0681 100.563 93.8875C100.793 93.2503 100.964 92.5934 101.075 91.925C101.195 91.2905 101.254 90.6458 101.25 90C101.253 89.3631 101.199 88.7271 101.088 88.1C100.97 87.4237 100.794 86.7587 100.563 86.1125C100.498 85.9319 100.475 85.7387 100.497 85.5479C100.518 85.3571 100.584 85.1739 100.688 85.0125C100.791 84.8499 100.93 84.7135 101.095 84.6137C101.26 84.514 101.446 84.4537 101.638 84.4375L118.675 83.025C119.616 82.9453 120.563 83.0567 121.46 83.3527C122.357 83.6487 123.184 84.123 123.893 84.7472C124.602 85.3713 125.177 86.1324 125.583 86.9846C125.99 87.8368 126.22 88.7625 126.26 89.706C126.3 90.6495 126.148 91.5912 125.814 92.4745C125.48 93.3579 124.971 94.1645 124.318 94.846C123.664 95.5274 122.879 96.0695 122.01 96.4397C121.142 96.8099 120.207 97.0005 119.263 97ZM103.375 93.25L118.875 94.5C119.494 94.5622 120.119 94.4907 120.708 94.2901C121.297 94.0895 121.835 93.7646 122.288 93.3375C122.748 92.917 123.115 92.4053 123.366 91.835C123.618 91.2647 123.748 90.6483 123.748 90.025C123.748 89.4017 123.618 88.7853 123.366 88.215C123.115 87.6447 122.748 87.133 122.288 86.7125C121.836 86.2884 121.299 85.9654 120.713 85.7649C120.127 85.5645 119.504 85.4912 118.888 85.55L103.375 86.8C103.375 87.1 103.5 87.3875 103.55 87.675C103.681 88.4431 103.748 89.2208 103.75 90C103.749 90.7881 103.678 91.5745 103.538 92.35C103.5 92.625 103.438 92.9125 103.375 93.2V93.25Z" fill="white"/>
<path d="M102.312 89.125C102.113 89.1258 101.915 89.0787 101.737 88.9875C101.563 88.898 101.413 88.7687 101.297 88.6102C101.182 88.4517 101.106 88.2684 101.075 88.075C100.964 87.4066 100.793 86.7497 100.562 86.1125C100.115 84.9064 99.4638 83.786 98.6374 82.8C98.2031 82.2781 97.7219 81.7969 97.1999 81.3625C97.0522 81.2397 96.9347 81.0845 96.8566 80.9089C96.7786 80.7333 96.7421 80.542 96.7499 80.35C96.7581 80.157 96.8109 79.9685 96.9042 79.7994C96.9974 79.6302 97.1286 79.485 97.2874 79.375L111.337 69.625C112.133 69.0718 113.035 68.6906 113.987 68.5055C114.938 68.3204 115.917 68.3356 116.862 68.55C118.282 68.8708 119.567 69.6264 120.538 70.7115C121.508 71.7966 122.116 73.1573 122.277 74.6042C122.438 76.051 122.144 77.512 121.435 78.7839C120.727 80.0557 119.64 81.075 118.325 81.7L102.85 89C102.683 89.0838 102.499 89.1266 102.312 89.125ZM99.9999 80.55C100.187 80.7625 100.387 80.975 100.575 81.2C101.584 82.4057 102.379 83.7756 102.925 85.25C103.025 85.5375 103.112 85.8125 103.187 86.0875L117.25 79.45C117.813 79.1844 118.315 78.8047 118.724 78.3349C119.133 77.8652 119.44 77.3157 119.626 76.7211C119.812 76.1266 119.872 75.5 119.803 74.881C119.734 74.262 119.537 73.664 119.225 73.125C118.913 72.5872 118.493 72.1197 117.991 71.752C117.489 71.3842 116.917 71.1241 116.311 70.9879C115.704 70.8518 115.075 70.8425 114.465 70.9608C113.854 71.079 113.275 71.3222 112.762 71.675L99.9999 80.55Z" fill="white"/>
<path d="M99.6 83.25C99.4164 83.2503 99.2349 83.2101 99.0686 83.1324C98.9022 83.0546 98.755 82.9411 98.6375 82.8C97.371 81.2823 95.729 80.123 93.875 79.4375C93.2425 79.2058 92.5896 79.0342 91.925 78.925C91.7328 78.8951 91.5503 78.8208 91.3918 78.708C91.2334 78.5951 91.1035 78.4469 91.0125 78.275C90.9246 78.1005 90.8788 77.9079 90.8788 77.7125C90.8788 77.5171 90.9246 77.3245 91.0125 77.15L98.3 61.675C98.7092 60.8048 99.2934 60.0283 100.016 59.3939C100.739 58.7595 101.584 58.2807 102.5 57.9875C103.423 57.6959 104.397 57.5996 105.36 57.705C106.322 57.8103 107.252 58.1149 108.091 58.5993C108.929 59.0838 109.657 59.7375 110.229 60.5188C110.801 61.3001 111.204 62.1919 111.412 63.1375C111.624 64.0828 111.638 65.0616 111.453 66.0124C111.268 66.9632 110.888 67.8655 110.337 68.6625L100.625 82.7125C100.515 82.8713 100.37 83.0025 100.201 83.0958C100.031 83.1891 99.843 83.2418 99.65 83.25H99.6ZM93.9125 76.825C94.1875 76.9 94.4625 76.9875 94.7375 77.0875C96.1987 77.6374 97.5556 78.4321 98.75 79.4375L99.4 80.0125L108.275 67.2375C108.621 66.7257 108.858 66.148 108.972 65.5405C109.085 64.933 109.072 64.3086 108.933 63.7064C108.795 63.1042 108.533 62.537 108.166 62.0401C107.798 61.5432 107.333 61.1274 106.797 60.8185C106.262 60.5096 105.669 60.3142 105.055 60.2446C104.441 60.1749 103.819 60.2325 103.228 60.4137C102.637 60.5949 102.09 60.8959 101.621 61.2978C101.152 61.6998 100.77 62.1941 100.5 62.75L93.9125 76.825Z" fill="white"/>
<path d="M90 103.75C89.2119 103.749 88.4255 103.678 87.65 103.538C86.8361 103.406 86.0367 103.196 85.2625 102.913C83.8013 102.363 82.4444 101.568 81.25 100.563C80.5878 100.019 79.9807 99.4122 79.4375 98.75C78.4284 97.5443 77.6335 96.1744 77.0875 94.7C76.8055 93.9116 76.5922 93.1002 76.45 92.275C76.3215 91.5234 76.2546 90.7625 76.25 90C76.2648 88.3854 76.5478 86.7844 77.0875 85.2625C77.6374 83.8013 78.432 82.4444 79.4375 81.25C79.9807 80.5878 80.5878 79.9807 81.25 79.4375C82.4557 78.4284 83.8256 77.6335 85.3 77.0875C86.088 76.804 86.8995 76.5906 87.725 76.45C89.2712 76.175 90.8538 76.175 92.4 76.45C93.2139 76.582 94.0133 76.7913 94.7875 77.075C96.232 77.6337 97.5716 78.4325 98.75 79.4375C99.4122 79.9807 100.019 80.5878 100.562 81.25C101.572 82.4557 102.366 83.8256 102.913 85.3C103.195 86.0885 103.408 86.8998 103.55 87.725C103.679 88.4766 103.745 89.2375 103.75 90C103.735 91.6147 103.452 93.2156 102.913 94.7375C102.363 96.1987 101.568 97.5556 100.562 98.75C100.019 99.4122 99.4122 100.019 98.75 100.563C97.5443 101.572 96.1744 102.366 94.7 102.913C93.912 103.196 93.1005 103.409 92.275 103.55C91.5234 103.679 90.7625 103.745 90 103.75ZM90 78.75C89.3631 78.7466 88.7271 78.801 88.1 78.9125C87.4237 79.0303 86.7587 79.2059 86.1125 79.4375C84.9064 79.8851 83.786 80.5362 82.8 81.3625C81.2823 82.629 80.123 84.271 79.4375 86.125C79.2058 86.7575 79.0342 87.4104 78.925 88.075C78.8046 88.7095 78.746 89.3542 78.75 90C78.7466 90.637 78.801 91.2729 78.9125 91.9C79.0303 92.5763 79.2059 93.2413 79.4375 93.8875C79.885 95.0936 80.5362 96.214 81.3625 97.2C82.629 98.7177 84.271 99.877 86.125 100.563C86.7575 100.794 87.4103 100.966 88.075 101.075C89.3401 101.3 90.6349 101.3 91.9 101.075C92.5763 100.957 93.2413 100.782 93.8875 100.55C95.0936 100.102 96.214 99.4514 97.2 98.625C98.7177 97.3585 99.877 95.7165 100.562 93.8625C100.794 93.23 100.966 92.5772 101.075 91.9125C101.195 91.2821 101.253 90.6416 101.25 90C101.253 89.3631 101.199 88.7271 101.087 88.1C100.97 87.4237 100.794 86.7588 100.562 86.1125C100.115 84.9064 99.4638 83.786 98.6375 82.8C97.371 81.2823 95.729 80.123 93.875 79.4375C93.2425 79.2058 92.5897 79.0342 91.925 78.925C91.2905 78.8047 90.6458 78.746 90 78.75Z" fill="white"/>
</svg>
